<mxfile host="app.diagrams.net" agent="Mozilla/5.0 (X11; Linux x86_64; rv:109.0) Gecko/20100101 Firefox/115.0" version="24.7.14">
  <diagram name="Page-1" id="58cdce13-f638-feb5-8d6f-7d28b1aa9fa0">
    <mxGraphModel dx="636" dy="379" grid="1" gridSize="10" guides="1" tooltips="1" connect="1" arrows="1" fold="1" page="1" pageScale="1" pageWidth="1100" pageHeight="850" background="none" math="0" shadow="0">
      <root>
        <mxCell id="0" />
        <mxCell id="1" parent="0" />
        <mxCell id="vtCQq3Uf3ujSz4hICioa-6" style="edgeStyle=orthogonalEdgeStyle;rounded=0;orthogonalLoop=1;jettySize=auto;html=1;entryX=0.5;entryY=0;entryDx=0;entryDy=0;" edge="1" parent="1" source="vtCQq3Uf3ujSz4hICioa-2" target="vtCQq3Uf3ujSz4hICioa-5">
          <mxGeometry relative="1" as="geometry" />
        </mxCell>
        <mxCell id="vtCQq3Uf3ujSz4hICioa-2" value="&lt;div&gt;Client connects&lt;/div&gt;&lt;div&gt;to Server&lt;br&gt;&lt;/div&gt;" style="rounded=1;whiteSpace=wrap;html=1;" vertex="1" parent="1">
          <mxGeometry x="320" y="80" width="120" height="40" as="geometry" />
        </mxCell>
        <mxCell id="vtCQq3Uf3ujSz4hICioa-9" style="edgeStyle=orthogonalEdgeStyle;rounded=0;orthogonalLoop=1;jettySize=auto;html=1;entryX=0.5;entryY=0;entryDx=0;entryDy=0;exitX=0;exitY=0.5;exitDx=0;exitDy=0;" edge="1" parent="1" source="vtCQq3Uf3ujSz4hICioa-5" target="vtCQq3Uf3ujSz4hICioa-8">
          <mxGeometry relative="1" as="geometry" />
        </mxCell>
        <mxCell id="vtCQq3Uf3ujSz4hICioa-10" style="edgeStyle=orthogonalEdgeStyle;rounded=0;orthogonalLoop=1;jettySize=auto;html=1;entryX=0.5;entryY=0;entryDx=0;entryDy=0;exitX=1;exitY=0.5;exitDx=0;exitDy=0;" edge="1" parent="1" source="vtCQq3Uf3ujSz4hICioa-5" target="vtCQq3Uf3ujSz4hICioa-7">
          <mxGeometry relative="1" as="geometry" />
        </mxCell>
        <mxCell id="vtCQq3Uf3ujSz4hICioa-5" value="IP Pairing" style="rhombus;whiteSpace=wrap;html=1;" vertex="1" parent="1">
          <mxGeometry x="340" y="160" width="80" height="80" as="geometry" />
        </mxCell>
        <mxCell id="vtCQq3Uf3ujSz4hICioa-16" style="edgeStyle=orthogonalEdgeStyle;rounded=0;orthogonalLoop=1;jettySize=auto;html=1;" edge="1" parent="1" source="vtCQq3Uf3ujSz4hICioa-7" target="vtCQq3Uf3ujSz4hICioa-14">
          <mxGeometry relative="1" as="geometry" />
        </mxCell>
        <mxCell id="vtCQq3Uf3ujSz4hICioa-7" value="Create new Pair" style="rounded=1;whiteSpace=wrap;html=1;" vertex="1" parent="1">
          <mxGeometry x="410" y="260" width="120" height="30" as="geometry" />
        </mxCell>
        <mxCell id="vtCQq3Uf3ujSz4hICioa-15" style="edgeStyle=orthogonalEdgeStyle;rounded=0;orthogonalLoop=1;jettySize=auto;html=1;" edge="1" parent="1" source="vtCQq3Uf3ujSz4hICioa-8" target="vtCQq3Uf3ujSz4hICioa-14">
          <mxGeometry relative="1" as="geometry" />
        </mxCell>
        <mxCell id="vtCQq3Uf3ujSz4hICioa-8" value="Retrieve existing Pair" style="rounded=1;whiteSpace=wrap;html=1;" vertex="1" parent="1">
          <mxGeometry x="230" y="260" width="120" height="30" as="geometry" />
        </mxCell>
        <mxCell id="vtCQq3Uf3ujSz4hICioa-11" value="IP exists in DB" style="text;html=1;align=center;verticalAlign=middle;resizable=0;points=[];autosize=1;strokeColor=none;fillColor=none;" vertex="1" parent="1">
          <mxGeometry x="250" y="170" width="100" height="30" as="geometry" />
        </mxCell>
        <mxCell id="vtCQq3Uf3ujSz4hICioa-13" value="IP not in DB" style="text;html=1;align=center;verticalAlign=middle;resizable=0;points=[];autosize=1;strokeColor=none;fillColor=none;" vertex="1" parent="1">
          <mxGeometry x="410" y="170" width="90" height="30" as="geometry" />
        </mxCell>
        <mxCell id="vtCQq3Uf3ujSz4hICioa-14" value="Client receives a proxy IP" style="rounded=1;whiteSpace=wrap;html=1;" vertex="1" parent="1">
          <mxGeometry x="330" y="350" width="120" height="40" as="geometry" />
        </mxCell>
      </root>
    </mxGraphModel>
  </diagram>
</mxfile>
